<svg width="16" height="16" viewBox="0 0 16 16" fill="none" xmlns="http://www.w3.org/2000/svg">
<rect width="16" height="16" rx="8" fill="#B84C74"/>
<path d="M7.808 11.304C8.08 11.304 8.332 11.264 8.564 11.184C8.796 11.104 8.996 10.988 9.164 10.836C9.332 10.676 9.464 10.488 9.56 10.272C9.656 10.056 9.704 9.82 9.704 9.564C9.704 9.004 9.536 8.588 9.2 8.316C8.872 8.044 8.416 7.908 7.832 7.908H6.944V7.56L8.672 4.896L9.224 4.368L8.444 4.488H6.068V3.6H10.352V3.948L8.444 6.816L8.024 7.164V7.188L8.432 7.104C8.752 7.112 9.048 7.172 9.32 7.284C9.592 7.388 9.828 7.544 10.028 7.752C10.228 7.952 10.384 8.196 10.496 8.484C10.608 8.764 10.664 9.084 10.664 9.444C10.664 9.876 10.588 10.26 10.436 10.596C10.284 10.932 10.076 11.216 9.812 11.448C9.556 11.672 9.252 11.844 8.9 11.964C8.548 12.084 8.176 12.144 7.784 12.144C7.424 12.144 7.1 12.116 6.812 12.06C6.524 12.004 6.272 11.932 6.056 11.844L6.308 10.992C6.492 11.08 6.708 11.156 6.956 11.22C7.212 11.276 7.496 11.304 7.808 11.304Z" fill="white"/>
</svg>
