<svg width="25" height="26" viewBox="0 0 25 26" fill="none" xmlns="http://www.w3.org/2000/svg">
<path d="M1.68717 17.7712C1.75365 17.1064 2.3131 16.6001 2.98125 16.6001H4.6972C5.36535 16.6001 5.9248 17.1064 5.99128 17.7712L6.39615 21.82C6.54743 23.3327 5.35951 24.6453 3.83923 24.6453C2.31895 24.6453 1.13102 23.3327 1.2823 21.8199L1.68717 17.7712Z" stroke="#417A82"/>
<circle cx="3.83921" cy="19.4925" r="1.13065" fill="#417A82"/>
<rect x="0.5" y="0.575195" width="24" height="2" stroke="#417A82"/>
<path d="M22.5151 3.0752L22.5151 22.0752" stroke="#417A82"/>
<path d="M17.5302 5.0752L17.5302 20.0752" stroke="#417A82"/>
<line x1="14.5" y1="5.0752" x2="14.5" y2="20.1506" stroke="#417A82"/>
<line x1="11.5" y1="5.0752" x2="11.5" y2="20.1506" stroke="#417A82"/>
<path d="M8.5 5.0752L8.5 19.1154" stroke="#417A82"/>
<path d="M5.5 5.0752L5.5 15.0752" stroke="#417A82"/>
<path d="M2.50012 14.9973V4.5752H20.4221V21.5752H8.00012" stroke="#417A82"/>
</svg>
