<svg width="25" height="24" viewBox="0 0 25 24" fill="none" xmlns="http://www.w3.org/2000/svg">
<rect x="0.5" y="20.6455" width="24" height="2" stroke="#417A82"/>
<rect x="2.5" y="18.6455" width="20" height="2" stroke="#417A82"/>
<path d="M19.2262 6.99637H18.2738C18.2729 6.99605 18.2729 6.99602 18.2729 6.996L18.2728 6.99637L18.2725 6.99701L18.2678 7.01104C18.2631 7.02467 18.2554 7.04656 18.2444 7.07554C18.2223 7.13359 18.1875 7.2195 18.1386 7.32392C18.0401 7.53401 17.8877 7.81213 17.6724 8.08769C17.243 8.63732 16.5928 9.14551 15.625 9.14551C14.6572 9.14551 14.007 8.63732 13.5776 8.08769C13.3623 7.81213 13.2099 7.53401 13.1114 7.32392C13.0625 7.2195 13.0277 7.13359 13.0056 7.07554C12.9946 7.04656 12.9869 7.02467 12.9822 7.01104L12.9775 6.99701L12.9772 6.99637L12.9771 6.996C12.9771 6.99602 12.9771 6.99605 12.9762 6.99637H12.0238C12.0229 6.99605 12.0229 6.99602 12.0229 6.996L12.0228 6.99637L12.0225 6.99701L12.0178 7.01104C12.0131 7.02467 12.0054 7.04656 11.9944 7.07554C11.9723 7.13359 11.9375 7.2195 11.8886 7.32392C11.7901 7.53401 11.6377 7.81213 11.4224 8.08769C10.993 8.63732 10.3428 9.14551 9.375 9.14551C8.40718 9.14551 7.75701 8.63732 7.32761 8.08769C7.11233 7.81213 6.9599 7.53401 6.86142 7.32392C6.81248 7.2195 6.77765 7.13359 6.75562 7.07554C6.74463 7.04656 6.73687 7.02467 6.73219 7.01104L6.72746 6.99701L6.72703 6.99569L6.72712 6.996C6.72713 6.99602 6.72714 6.99605 6.72618 6.99637H5.77382C5.77286 6.99605 5.77287 6.99602 5.77288 6.996L5.77254 6.99701L5.76781 7.01104C5.76313 7.02467 5.75537 7.04656 5.74438 7.07554C5.72235 7.13359 5.68752 7.2195 5.63858 7.32392C5.5401 7.53401 5.38767 7.81213 5.17239 8.08769C4.74299 8.63732 4.09282 9.14551 3.125 9.14551C2.12814 9.14551 1.47339 8.69156 1.05497 8.2274C0.843349 7.99263 0.694223 7.75652 0.598485 7.57951C0.575603 7.53721 0.555941 7.49859 0.539355 7.46456L2.3465 2.64551H22.6535L24.4606 7.46456C24.4441 7.49859 24.4244 7.53721 24.4015 7.57951C24.3058 7.75652 24.1567 7.99263 23.945 8.2274C23.5266 8.69156 22.8719 9.14551 21.875 9.14551C20.9072 9.14551 20.257 8.63732 19.8276 8.08769C19.6123 7.81213 19.4599 7.53401 19.3614 7.32392C19.3125 7.2195 19.2777 7.13359 19.2556 7.07554C19.2446 7.04656 19.2369 7.02467 19.2322 7.01104L19.2275 6.99701L19.2272 6.99637L19.2271 6.996C19.2271 6.99602 19.2271 6.99605 19.2262 6.99637Z" stroke="#417A82" stroke-linejoin="bevel"/>
<line x1="2.5" y1="9.14551" x2="2.5" y2="18.1455" stroke="#417A82"/>
<line x1="22.5" y1="9.14551" x2="22.5" y2="18.1455" stroke="#417A82"/>
<rect x="2.5" y="0.645508" width="20" height="2" stroke="#417A82"/>
<line x1="1" y1="6.64551" x2="24" y2="6.64551" stroke="#417A82"/>
</svg>
